<svg width="180" height="60" viewBox="0 0 180 60" fill="none" xmlns="http://www.w3.org/2000/svg">
  <!-- Background -->
  <rect width="180" height="60" fill="white" rx="8"/>
  
  <!-- Main Logo - Guru Icon -->
  <g transform="translate(15, 8)">
    <path d="M20 8 C16 8 13 11 13 16 C13 20 15 23 18 25 L18 29 L22 29 L22 25 C25 23 27 20 27 16 C27 11 24 8 20 8Z" fill="#2d7a6e" stroke="#e07b39" stroke-width="1"/>
    <circle cx="20" cy="15" r="4" fill="#f5ede0"/>
    <path d="M14 14 Q12 16 13 19" stroke="#2d7a6e" stroke-width="1.5" stroke-linecap="round"/>
    <path d="M26 14 Q28 16 27 19" stroke="#2d7a6e" stroke-width="1.5" stroke-linecap="round"/>
  </g>
  
  <!-- Text: SIDEGURUS.COM -->
  <g>
    <!-- SIDE -->
    <text x="45" y="32" font-family="Arial, sans-serif" font-size="18" font-weight="900" fill="#e07b39" letter-spacing="1">SIDE</text>
    
    <!-- RUS -->
    <text x="115" y="32" font-family="Arial, sans-serif" font-size="18" font-weight="900" fill="#2d7a6e" letter-spacing="1">RUS</text>
    
    <!-- .COM -->
    <text x="157" y="32" font-family="Arial, sans-serif" font-size="16" font-weight="900" fill="#333" letter-spacing="0.5">.COM</text>
  </g>
  
  <!-- Tagline -->
  <text x="45" y="48" font-family="Arial, sans-serif" font-size="7" font-weight="bold" fill="#2d7a6e" letter-spacing="1">TURN YOUR EXPERTISE INTO INCOME</text>
</svg>
